<svg xmlns="http://www.w3.org/2000/svg" viewBox="0 0 1600 640" preserveAspectRatio="xMidYMax slice" aria-hidden="true">
  <!-- Eastern Cape dusk, painterly — layered atmospheric hills, rondavels,
       aloes, an elderly couple walking home. Brand navy + gold tones. -->
  <defs>
    <radialGradient id="sunGlow" cx="50%" cy="50%" r="50%">
      <stop offset="0%" stop-color="#f2d689" stop-opacity=".8"/>
      <stop offset="30%" stop-color="#e8c766" stop-opacity=".38"/>
      <stop offset="65%" stop-color="#d4a82a" stop-opacity=".14"/>
      <stop offset="100%" stop-color="#d4a82a" stop-opacity="0"/>
    </radialGradient>
    <linearGradient id="skyBand" x1="0" y1="0" x2="0" y2="1">
      <stop offset="0%" stop-color="#d4a82a" stop-opacity="0"/>
      <stop offset="78%" stop-color="#c78f3c" stop-opacity=".14"/>
      <stop offset="100%" stop-color="#b96f3a" stop-opacity=".22"/>
    </linearGradient>
    <linearGradient id="hillFar" x1="0" y1="0" x2="0" y2="1">
      <stop offset="0%" stop-color="#5a4f38"/>
      <stop offset="100%" stop-color="#443c2c"/>
    </linearGradient>
    <linearGradient id="hillMid" x1="0" y1="0" x2="0" y2="1">
      <stop offset="0%" stop-color="#3f382a"/>
      <stop offset="100%" stop-color="#2d2820"/>
    </linearGradient>
    <linearGradient id="hillNear" x1="0" y1="0" x2="0" y2="1">
      <stop offset="0%" stop-color="#2f2a20"/>
      <stop offset="100%" stop-color="#201c15"/>
    </linearGradient>
    <linearGradient id="mist" x1="0" y1="0" x2="0" y2="1">
      <stop offset="0%" stop-color="#cbbfa3" stop-opacity="0"/>
      <stop offset="50%" stop-color="#cbbfa3" stop-opacity=".1"/>
      <stop offset="100%" stop-color="#cbbfa3" stop-opacity="0"/>
    </linearGradient>
    <linearGradient id="pageFade" x1="0" y1="0" x2="0" y2="1">
      <stop offset="0%" stop-color="#1b1915" stop-opacity="0"/>
      <stop offset="100%" stop-color="#1b1915" stop-opacity=".95"/>
    </linearGradient>
    <linearGradient id="roofGlow" x1="0" y1="0" x2="0" y2="1">
      <stop offset="0%" stop-color="#6b5d40"/>
      <stop offset="100%" stop-color="#4f452f"/>
    </linearGradient>
  </defs>

  <!-- dusk colour band on horizon -->
  <rect x="0" y="180" width="1600" height="260" fill="url(#skyBand)"/>

  <!-- sun + halo -->
  <circle cx="1140" cy="322" r="260" fill="url(#sunGlow)"/>
  <circle cx="1140" cy="322" r="46" fill="#f2d689" opacity=".85"/>
  <circle cx="1140" cy="322" r="60" fill="#e8c766" opacity=".25"/>

  <!-- drifting birds -->
  <g stroke="#d3c7a9" stroke-width="2.6" fill="none" opacity=".55" stroke-linecap="round">
    <g>
      <path d="M1225 185 q9 -9 18 0 q9 -9 18 0"/>
      <path d="M1282 212 q7 -7 14 0 q7 -7 14 0"/>
      <path d="M1180 232 q6 -6 12 0 q6 -6 12 0"/>
      <animateTransform attributeName="transform" type="translate" values="0 0; -60 -8; 0 0" dur="26s" repeatCount="indefinite"/>
    </g>
  </g>

  <!-- far ridge -->
  <path d="M0 396 Q170 322 350 378 T710 368 Q895 322 1075 374 T1435 364 L1600 380 L1600 640 L0 640 Z" fill="url(#hillFar)" opacity=".9"/>
  <!-- valley mist -->
  <rect x="0" y="380" width="1600" height="90" fill="url(#mist)"/>
  <!-- mid hills -->
  <path d="M0 462 Q215 398 425 448 T855 442 Q1055 402 1245 452 T1600 442 L1600 640 L0 640 Z" fill="url(#hillMid)"/>
  <!-- sun rim-light on mid hill crest -->
  <path d="M855 442 Q1055 402 1245 452" stroke="#d4a82a" stroke-width="3" fill="none" opacity=".28" stroke-linecap="round"/>
  <!-- near slope -->
  <path d="M0 548 Q300 494 640 530 T1240 524 Q1440 508 1600 534 L1600 640 L0 640 Z" fill="url(#hillNear)"/>

  <!-- footpath -->
  <path d="M640 640 Q745 586 855 568 Q958 552 1034 546 L1052 552 Q968 562 876 580 Q778 602 706 640 Z" fill="#463d2a" opacity=".8"/>
  <path d="M660 640 Q756 590 862 572" stroke="#5d5138" stroke-width="2" fill="none" opacity=".5"/>

  <!-- homestead: three rondavels -->
  <g>
    <rect x="1018" y="510" width="90" height="44" rx="5" fill="#453d2b"/>
    <path d="M1006 512 L1063 464 L1120 512 Z" fill="url(#roofGlow)"/>
    <path d="M1006 512 L1063 464 L1120 512" stroke="#e8c766" stroke-width="2.6" fill="none" opacity=".6"/>
    <rect x="1052" y="528" width="19" height="26" rx="2.5" fill="#f2d689" opacity=".85"/>
    <rect x="1150" y="504" width="62" height="34" rx="4" fill="#3e3727"/>
    <path d="M1141 506 L1181 472 L1221 506 Z" fill="#544a33"/>
    <path d="M1141 506 L1181 472 L1221 506" stroke="#e8c766" stroke-width="2" fill="none" opacity=".45"/>
    <rect x="1172" y="518" width="13" height="18" rx="2" fill="#e8c766" opacity=".5"/>
    <rect x="248" y="496" width="56" height="30" rx="4" fill="#3b3424"/>
    <path d="M240 498 L276 468 L312 498 Z" fill="#4f452f"/>
    <path d="M240 498 L276 468 L312 498" stroke="#e8c766" stroke-width="1.8" fill="none" opacity=".4"/>
  </g>

  <!-- chimney smoke wisp -->
  <path d="M1063 460 q6 -14 -2 -24 q-7 -10 0 -22" stroke="#cbbfa3" stroke-width="3" fill="none" opacity=".28" stroke-linecap="round">
    <animate attributeName="opacity" values=".28;.14;.28" dur="7s" repeatCount="indefinite"/>
  </path>

  <!-- aloe ferox silhouettes -->
  <g fill="#161310">
    <g transform="translate(150,558)">
      <rect x="-4" y="-52" width="8" height="52" rx="3"/>
      <path d="M0 -52 C-16 -66 -34 -70 -46 -66 C-30 -58 -18 -50 0 -46 Z"/>
      <path d="M0 -52 C16 -66 34 -70 46 -66 C30 -58 18 -50 0 -46 Z"/>
      <path d="M0 -58 C-10 -74 -12 -88 -8 -96 C-2 -84 2 -72 2 -58 Z"/>
      <path d="M0 -58 C10 -74 12 -88 8 -96 C2 -84 -2 -72 -2 -58 Z"/>
      <path d="M0 -50 C-22 -54 -40 -50 -52 -42 C-34 -40 -16 -42 0 -44 Z"/>
      <path d="M0 -50 C22 -54 40 -50 52 -42 C34 -40 16 -42 0 -44 Z"/>
    </g>
    <g transform="translate(1492,543) scale(.8)">
      <rect x="-4" y="-52" width="8" height="52" rx="3"/>
      <path d="M0 -52 C-16 -66 -34 -70 -46 -66 C-30 -58 -18 -50 0 -46 Z"/>
      <path d="M0 -52 C16 -66 34 -70 46 -66 C30 -58 18 -50 0 -46 Z"/>
      <path d="M0 -58 C-10 -74 -12 -88 -8 -96 C-2 -84 2 -72 2 -58 Z"/>
      <path d="M0 -58 C10 -74 12 -88 8 -96 C2 -84 -2 -72 -2 -58 Z"/>
    </g>
  </g>

  <!-- elderly couple walking home -->
  <g fill="#100e0a" transform="translate(830,554) scale(1.05)">
    <path d="M0 0 C-1 -10 -2 -20 0 -30 C2 -38 8 -42 13 -41 C18 -40 21 -35 21 -30 L20 -12 C24 -6 25 0 24 6 L20 34 L15 34 L16 8 L10 8 L8 34 L3 34 L4 4 C1 2 0 1 0 0 Z"/>
    <circle cx="14" cy="-47" r="7.5"/>
    <path d="M6 -50 C8 -56 20 -56 22 -49 C22 -45 20 -44 14 -44 C9 -44 7 -46 6 -50 Z"/>
    <g transform="translate(38,-2)">
      <path d="M0 -2 C-2 -14 -1 -24 3 -32 C6 -38 12 -40 16 -38 C20 -36 22 -31 21 -25 L19 -8 C22 -2 23 4 22 8 L18 36 L13 36 L14 10 L8 10 L5 36 L0 36 L2 6 C0 3 0 0 0 -2 Z"/>
      <circle cx="12" cy="-45" r="7"/>
      <rect x="2" y="-52" width="21" height="4" rx="2"/>
      <rect x="6" y="-58" width="13" height="7" rx="2"/>
      <rect x="27" y="-20" width="3.5" height="56" rx="1.5" transform="rotate(6 28 -20)"/>
    </g>
  </g>
  <!-- warm ground glow around the couple, from the homestead light -->
  <ellipse cx="870" cy="612" rx="130" ry="16" fill="#d4a82a" opacity=".06"/>

  <!-- fade into page background -->
  <rect x="0" y="555" width="1600" height="85" fill="url(#pageFade)"/>
</svg>
